<svg xmlns="http://www.w3.org/2000/svg" xmlns:xlink="http://www.w3.org/1999/xlink" width="191" zoomAndPan="magnify" viewBox="0 0 143.25 146.250002" height="195" preserveAspectRatio="xMidYMid meet" version="1.0"><defs><clipPath id="6af7651a19"><path d="M 40.109375 42.296875 L 65.511719 42.296875 L 65.511719 67.703125 L 40.109375 67.703125 Z M 40.109375 42.296875 " clip-rule="nonzero"/></clipPath><clipPath id="dd72c99f40"><path d="M 52.808594 42.296875 C 45.792969 42.296875 40.109375 47.984375 40.109375 55 C 40.109375 62.015625 45.792969 67.703125 52.808594 67.703125 C 59.824219 67.703125 65.511719 62.015625 65.511719 55 C 65.511719 47.984375 59.824219 42.296875 52.808594 42.296875 Z M 52.808594 42.296875 " clip-rule="nonzero"/></clipPath><clipPath id="4f36c81be8"><path d="M 76.386719 42.296875 L 101.792969 42.296875 L 101.792969 67.703125 L 76.386719 67.703125 Z M 76.386719 42.296875 " clip-rule="nonzero"/></clipPath><clipPath id="14312e1ded"><path d="M 89.089844 42.296875 C 82.074219 42.296875 76.386719 47.984375 76.386719 55 C 76.386719 62.015625 82.074219 67.703125 89.089844 67.703125 C 96.105469 67.703125 101.792969 62.015625 101.792969 55 C 101.792969 47.984375 96.105469 42.296875 89.089844 42.296875 Z M 89.089844 42.296875 " clip-rule="nonzero"/></clipPath><clipPath id="489d7dbcff"><path d="M 40.109375 78.296875 L 65.511719 78.296875 L 65.511719 103.703125 L 40.109375 103.703125 Z M 40.109375 78.296875 " clip-rule="nonzero"/></clipPath><clipPath id="9b85b463a7"><path d="M 52.808594 78.296875 C 45.792969 78.296875 40.109375 83.984375 40.109375 91 C 40.109375 98.015625 45.792969 103.703125 52.808594 103.703125 C 59.824219 103.703125 65.511719 98.015625 65.511719 91 C 65.511719 83.984375 59.824219 78.296875 52.808594 78.296875 Z M 52.808594 78.296875 " clip-rule="nonzero"/></clipPath><clipPath id="e5f45c0a1e"><path d="M 76.386719 78.296875 L 101.792969 78.296875 L 101.792969 103.703125 L 76.386719 103.703125 Z M 76.386719 78.296875 " clip-rule="nonzero"/></clipPath><clipPath id="5952a50f4e"><path d="M 89.089844 78.296875 C 82.074219 78.296875 76.386719 83.984375 76.386719 91 C 76.386719 98.015625 82.074219 103.703125 89.089844 103.703125 C 96.105469 103.703125 101.792969 98.015625 101.792969 91 C 101.792969 83.984375 96.105469 78.296875 89.089844 78.296875 Z M 89.089844 78.296875 " clip-rule="nonzero"/></clipPath><clipPath id="2e258f27a0"><path d="M 14.414062 16.613281 L 29.605469 16.613281 L 29.605469 31.804688 L 14.414062 31.804688 Z M 14.414062 16.613281 " clip-rule="nonzero"/></clipPath><clipPath id="f33024b240"><path d="M 22.011719 16.613281 C 17.816406 16.613281 14.414062 20.015625 14.414062 24.210938 C 14.414062 28.40625 17.816406 31.804688 22.011719 31.804688 C 26.207031 31.804688 29.605469 28.40625 29.605469 24.210938 C 29.605469 20.015625 26.207031 16.613281 22.011719 16.613281 Z M 22.011719 16.613281 " clip-rule="nonzero"/></clipPath><clipPath id="b41a4cdea1"><path d="M 14.414062 50.007812 L 29.605469 50.007812 L 29.605469 65.203125 L 14.414062 65.203125 Z M 14.414062 50.007812 " clip-rule="nonzero"/></clipPath><clipPath id="2f77edb92a"><path d="M 22.011719 50.007812 C 17.816406 50.007812 14.414062 53.410156 14.414062 57.605469 C 14.414062 61.800781 17.816406 65.203125 22.011719 65.203125 C 26.207031 65.203125 29.605469 61.800781 29.605469 57.605469 C 29.605469 53.410156 26.207031 50.007812 22.011719 50.007812 Z M 22.011719 50.007812 " clip-rule="nonzero"/></clipPath><clipPath id="4fb1ef0e1a"><path d="M 14.414062 81.914062 L 29.605469 81.914062 L 29.605469 97.105469 L 14.414062 97.105469 Z M 14.414062 81.914062 " clip-rule="nonzero"/></clipPath><clipPath id="e43ef14a8a"><path d="M 22.011719 81.914062 C 17.816406 81.914062 14.414062 85.316406 14.414062 89.507812 C 14.414062 93.703125 17.816406 97.105469 22.011719 97.105469 C 26.207031 97.105469 29.605469 93.703125 29.605469 89.507812 C 29.605469 85.316406 26.207031 81.914062 22.011719 81.914062 Z M 22.011719 81.914062 " clip-rule="nonzero"/></clipPath><clipPath id="1ab1781c08"><path d="M 14.414062 113.550781 L 29.605469 113.550781 L 29.605469 128.742188 L 14.414062 128.742188 Z M 14.414062 113.550781 " clip-rule="nonzero"/></clipPath><clipPath id="9fff895891"><path d="M 22.011719 113.550781 C 17.816406 113.550781 14.414062 116.953125 14.414062 121.148438 C 14.414062 125.34375 17.816406 128.742188 22.011719 128.742188 C 26.207031 128.742188 29.605469 125.34375 29.605469 121.148438 C 29.605469 116.953125 26.207031 113.550781 22.011719 113.550781 Z M 22.011719 113.550781 " clip-rule="nonzero"/></clipPath><clipPath id="dc9d5b298f"><path d="M 47.09375 113.550781 L 62.285156 113.550781 L 62.285156 128.742188 L 47.09375 128.742188 Z M 47.09375 113.550781 " clip-rule="nonzero"/></clipPath><clipPath id="28654388de"><path d="M 54.6875 113.550781 C 50.492188 113.550781 47.09375 116.953125 47.09375 121.148438 C 47.09375 125.34375 50.492188 128.742188 54.6875 128.742188 C 58.882812 128.742188 62.285156 125.34375 62.285156 121.148438 C 62.285156 116.953125 58.882812 113.550781 54.6875 113.550781 Z M 54.6875 113.550781 " clip-rule="nonzero"/></clipPath><clipPath id="7158b8e5c0"><path d="M 79.445312 113.550781 L 94.636719 113.550781 L 94.636719 128.742188 L 79.445312 128.742188 Z M 79.445312 113.550781 " clip-rule="nonzero"/></clipPath><clipPath id="3ff238efcd"><path d="M 87.039062 113.550781 C 82.84375 113.550781 79.445312 116.953125 79.445312 121.148438 C 79.445312 125.34375 82.84375 128.742188 87.039062 128.742188 C 91.234375 128.742188 94.636719 125.34375 94.636719 121.148438 C 94.636719 116.953125 91.234375 113.550781 87.039062 113.550781 Z M 87.039062 113.550781 " clip-rule="nonzero"/></clipPath><clipPath id="e7f011a53f"><path d="M 111.796875 113.550781 L 126.988281 113.550781 L 126.988281 128.742188 L 111.796875 128.742188 Z M 111.796875 113.550781 " clip-rule="nonzero"/></clipPath><clipPath id="e2da04cbd0"><path d="M 119.394531 113.550781 C 115.199219 113.550781 111.796875 116.953125 111.796875 121.148438 C 111.796875 125.34375 115.199219 128.742188 119.394531 128.742188 C 123.585938 128.742188 126.988281 125.34375 126.988281 121.148438 C 126.988281 116.953125 123.585938 113.550781 119.394531 113.550781 Z M 119.394531 113.550781 " clip-rule="nonzero"/></clipPath><clipPath id="e6bb812211"><path d="M 111.796875 81.914062 L 126.988281 81.914062 L 126.988281 97.105469 L 111.796875 97.105469 Z M 111.796875 81.914062 " clip-rule="nonzero"/></clipPath><clipPath id="ec18d57203"><path d="M 119.394531 81.914062 C 115.199219 81.914062 111.796875 85.316406 111.796875 89.507812 C 111.796875 93.703125 115.199219 97.105469 119.394531 97.105469 C 123.585938 97.105469 126.988281 93.703125 126.988281 89.507812 C 126.988281 85.316406 123.585938 81.914062 119.394531 81.914062 Z M 119.394531 81.914062 " clip-rule="nonzero"/></clipPath><clipPath id="788fbfcfad"><path d="M 111.796875 48.996094 L 126.988281 48.996094 L 126.988281 64.1875 L 111.796875 64.1875 Z M 111.796875 48.996094 " clip-rule="nonzero"/></clipPath><clipPath id="391c8ad2ef"><path d="M 119.394531 48.996094 C 115.199219 48.996094 111.796875 52.394531 111.796875 56.589844 C 111.796875 60.785156 115.199219 64.1875 119.394531 64.1875 C 123.585938 64.1875 126.988281 60.785156 126.988281 56.589844 C 126.988281 52.394531 123.585938 48.996094 119.394531 48.996094 Z M 119.394531 48.996094 " clip-rule="nonzero"/></clipPath><clipPath id="577f827cd6"><path d="M 111.796875 16.613281 L 126.988281 16.613281 L 126.988281 31.804688 L 111.796875 31.804688 Z M 111.796875 16.613281 " clip-rule="nonzero"/></clipPath><clipPath id="5d47a60442"><path d="M 119.394531 16.613281 C 115.199219 16.613281 111.796875 20.015625 111.796875 24.210938 C 111.796875 28.40625 115.199219 31.804688 119.394531 31.804688 C 123.585938 31.804688 126.988281 28.40625 126.988281 24.210938 C 126.988281 20.015625 123.585938 16.613281 119.394531 16.613281 Z M 119.394531 16.613281 " clip-rule="nonzero"/></clipPath><clipPath id="935c848faf"><path d="M 79.445312 16.613281 L 94.636719 16.613281 L 94.636719 31.804688 L 79.445312 31.804688 Z M 79.445312 16.613281 " clip-rule="nonzero"/></clipPath><clipPath id="902545bedd"><path d="M 87.039062 16.613281 C 82.84375 16.613281 79.445312 20.015625 79.445312 24.210938 C 79.445312 28.40625 82.84375 31.804688 87.039062 31.804688 C 91.234375 31.804688 94.636719 28.40625 94.636719 24.210938 C 94.636719 20.015625 91.234375 16.613281 87.039062 16.613281 Z M 87.039062 16.613281 " clip-rule="nonzero"/></clipPath><clipPath id="d43fef9c04"><path d="M 47.09375 16.660156 L 62.285156 16.660156 L 62.285156 31.851562 L 47.09375 31.851562 Z M 47.09375 16.660156 " clip-rule="nonzero"/></clipPath><clipPath id="8c9556cad4"><path d="M 54.6875 16.660156 C 50.492188 16.660156 47.09375 20.0625 47.09375 24.257812 C 47.09375 28.453125 50.492188 31.851562 54.6875 31.851562 C 58.882812 31.851562 62.285156 28.453125 62.285156 24.257812 C 62.285156 20.0625 58.882812 16.660156 54.6875 16.660156 Z M 54.6875 16.660156 " clip-rule="nonzero"/></clipPath><clipPath id="170064755b"><path d="M 50.859375 135.335938 L 58.515625 135.335938 L 58.515625 142.992188 L 50.859375 142.992188 Z M 50.859375 135.335938 " clip-rule="nonzero"/></clipPath><clipPath id="820f87c561"><path d="M 54.6875 135.335938 C 52.574219 135.335938 50.859375 137.050781 50.859375 139.164062 C 50.859375 141.28125 52.574219 142.992188 54.6875 142.992188 C 56.804688 142.992188 58.515625 141.28125 58.515625 139.164062 C 58.515625 137.050781 56.804688 135.335938 54.6875 135.335938 Z M 54.6875 135.335938 " clip-rule="nonzero"/></clipPath><clipPath id="7e5186997a"><path d="M 83.210938 135.335938 L 90.867188 135.335938 L 90.867188 142.992188 L 83.210938 142.992188 Z M 83.210938 135.335938 " clip-rule="nonzero"/></clipPath><clipPath id="38c3f40e50"><path d="M 87.039062 135.335938 C 84.925781 135.335938 83.210938 137.050781 83.210938 139.164062 C 83.210938 141.28125 84.925781 142.992188 87.039062 142.992188 C 89.15625 142.992188 90.867188 141.28125 90.867188 139.164062 C 90.867188 137.050781 89.15625 135.335938 87.039062 135.335938 Z M 87.039062 135.335938 " clip-rule="nonzero"/></clipPath><clipPath id="070c569d84"><path d="M 50.859375 2.511719 L 58.515625 2.511719 L 58.515625 10.167969 L 50.859375 10.167969 Z M 50.859375 2.511719 " clip-rule="nonzero"/></clipPath><clipPath id="584f7eb620"><path d="M 54.6875 2.511719 C 52.574219 2.511719 50.859375 4.222656 50.859375 6.339844 C 50.859375 8.453125 52.574219 10.167969 54.6875 10.167969 C 56.804688 10.167969 58.515625 8.453125 58.515625 6.339844 C 58.515625 4.222656 56.804688 2.511719 54.6875 2.511719 Z M 54.6875 2.511719 " clip-rule="nonzero"/></clipPath><clipPath id="bbc4bf3d1d"><path d="M 83.210938 2.511719 L 90.867188 2.511719 L 90.867188 10.167969 L 83.210938 10.167969 Z M 83.210938 2.511719 " clip-rule="nonzero"/></clipPath><clipPath id="1a48121b0b"><path d="M 87.039062 2.511719 C 84.925781 2.511719 83.210938 4.222656 83.210938 6.339844 C 83.210938 8.453125 84.925781 10.167969 87.039062 10.167969 C 89.15625 10.167969 90.867188 8.453125 90.867188 6.339844 C 90.867188 4.222656 89.15625 2.511719 87.039062 2.511719 Z M 87.039062 2.511719 " clip-rule="nonzero"/></clipPath><clipPath id="80126fb2bc"><path d="M 1.171875 52.761719 L 8.828125 52.761719 L 8.828125 60.417969 L 1.171875 60.417969 Z M 1.171875 52.761719 " clip-rule="nonzero"/></clipPath><clipPath id="930fdfdc17"><path d="M 5 52.761719 C 2.882812 52.761719 1.171875 54.476562 1.171875 56.589844 C 1.171875 58.707031 2.882812 60.417969 5 60.417969 C 7.113281 60.417969 8.828125 58.707031 8.828125 56.589844 C 8.828125 54.476562 7.113281 52.761719 5 52.761719 Z M 5 52.761719 " clip-rule="nonzero"/></clipPath><clipPath id="0ac61490b3"><path d="M 1.171875 85.679688 L 8.828125 85.679688 L 8.828125 93.335938 L 1.171875 93.335938 Z M 1.171875 85.679688 " clip-rule="nonzero"/></clipPath><clipPath id="9f8a0daab4"><path d="M 5 85.679688 C 2.882812 85.679688 1.171875 87.394531 1.171875 89.507812 C 1.171875 91.625 2.882812 93.335938 5 93.335938 C 7.113281 93.335938 8.828125 91.625 8.828125 89.507812 C 8.828125 87.394531 7.113281 85.679688 5 85.679688 Z M 5 85.679688 " clip-rule="nonzero"/></clipPath><clipPath id="39f7d21b6b"><path d="M 133.675781 52.761719 L 141.332031 52.761719 L 141.332031 60.417969 L 133.675781 60.417969 Z M 133.675781 52.761719 " clip-rule="nonzero"/></clipPath><clipPath id="5a9e7e5d5e"><path d="M 137.503906 52.761719 C 135.390625 52.761719 133.675781 54.476562 133.675781 56.589844 C 133.675781 58.707031 135.390625 60.417969 137.503906 60.417969 C 139.621094 60.417969 141.332031 58.707031 141.332031 56.589844 C 141.332031 54.476562 139.621094 52.761719 137.503906 52.761719 Z M 137.503906 52.761719 " clip-rule="nonzero"/></clipPath><clipPath id="2651b41792"><path d="M 133.675781 85.679688 L 141.332031 85.679688 L 141.332031 93.335938 L 133.675781 93.335938 Z M 133.675781 85.679688 " clip-rule="nonzero"/></clipPath><clipPath id="ab0449eeaf"><path d="M 137.503906 85.679688 C 135.390625 85.679688 133.675781 87.394531 133.675781 89.507812 C 133.675781 91.625 135.390625 93.335938 137.503906 93.335938 C 139.621094 93.335938 141.332031 91.625 141.332031 89.507812 C 141.332031 87.394531 139.621094 85.679688 137.503906 85.679688 Z M 137.503906 85.679688 " clip-rule="nonzero"/></clipPath></defs><g clip-path="url(#6af7651a19)"><g clip-path="url(#dd72c99f40)"><path fill="#272a3a" d="M 40.109375 42.296875 L 65.511719 42.296875 L 65.511719 67.703125 L 40.109375 67.703125 Z M 40.109375 42.296875 " fill-opacity="1" fill-rule="nonzero"/></g></g><g clip-path="url(#4f36c81be8)"><g clip-path="url(#14312e1ded)"><path fill="#272a3a" d="M 76.386719 42.296875 L 101.792969 42.296875 L 101.792969 67.703125 L 76.386719 67.703125 Z M 76.386719 42.296875 " fill-opacity="1" fill-rule="nonzero"/></g></g><g clip-path="url(#489d7dbcff)"><g clip-path="url(#9b85b463a7)"><path fill="#272a3a" d="M 40.109375 78.296875 L 65.511719 78.296875 L 65.511719 103.703125 L 40.109375 103.703125 Z M 40.109375 78.296875 " fill-opacity="1" fill-rule="nonzero"/></g></g><g clip-path="url(#e5f45c0a1e)"><g clip-path="url(#5952a50f4e)"><path fill="#272a3a" d="M 76.386719 78.296875 L 101.792969 78.296875 L 101.792969 103.703125 L 76.386719 103.703125 Z M 76.386719 78.296875 " fill-opacity="1" fill-rule="nonzero"/></g></g><g clip-path="url(#2e258f27a0)"><g clip-path="url(#f33024b240)"><path fill="#272a3a" d="M 14.414062 16.613281 L 29.605469 16.613281 L 29.605469 31.804688 L 14.414062 31.804688 Z M 14.414062 16.613281 " fill-opacity="1" fill-rule="nonzero"/></g></g><g clip-path="url(#b41a4cdea1)"><g clip-path="url(#2f77edb92a)"><path fill="#272a3a" d="M 14.414062 50.007812 L 29.605469 50.007812 L 29.605469 65.203125 L 14.414062 65.203125 Z M 14.414062 50.007812 " fill-opacity="1" fill-rule="nonzero"/></g></g><g clip-path="url(#4fb1ef0e1a)"><g clip-path="url(#e43ef14a8a)"><path fill="#272a3a" d="M 14.414062 81.914062 L 29.605469 81.914062 L 29.605469 97.105469 L 14.414062 97.105469 Z M 14.414062 81.914062 " fill-opacity="1" fill-rule="nonzero"/></g></g><g clip-path="url(#1ab1781c08)"><g clip-path="url(#9fff895891)"><path fill="#272a3a" d="M 14.414062 113.550781 L 29.605469 113.550781 L 29.605469 128.742188 L 14.414062 128.742188 Z M 14.414062 113.550781 " fill-opacity="1" fill-rule="nonzero"/></g></g><g clip-path="url(#dc9d5b298f)"><g clip-path="url(#28654388de)"><path fill="#272a3a" d="M 47.09375 113.550781 L 62.285156 113.550781 L 62.285156 128.742188 L 47.09375 128.742188 Z M 47.09375 113.550781 " fill-opacity="1" fill-rule="nonzero"/></g></g><g clip-path="url(#7158b8e5c0)"><g clip-path="url(#3ff238efcd)"><path fill="#272a3a" d="M 79.445312 113.550781 L 94.636719 113.550781 L 94.636719 128.742188 L 79.445312 128.742188 Z M 79.445312 113.550781 " fill-opacity="1" fill-rule="nonzero"/></g></g><g clip-path="url(#e7f011a53f)"><g clip-path="url(#e2da04cbd0)"><path fill="#272a3a" d="M 111.796875 113.550781 L 126.988281 113.550781 L 126.988281 128.742188 L 111.796875 128.742188 Z M 111.796875 113.550781 " fill-opacity="1" fill-rule="nonzero"/></g></g><g clip-path="url(#e6bb812211)"><g clip-path="url(#ec18d57203)"><path fill="#272a3a" d="M 111.796875 81.914062 L 126.988281 81.914062 L 126.988281 97.105469 L 111.796875 97.105469 Z M 111.796875 81.914062 " fill-opacity="1" fill-rule="nonzero"/></g></g><g clip-path="url(#788fbfcfad)"><g clip-path="url(#391c8ad2ef)"><path fill="#272a3a" d="M 111.796875 48.996094 L 126.988281 48.996094 L 126.988281 64.1875 L 111.796875 64.1875 Z M 111.796875 48.996094 " fill-opacity="1" fill-rule="nonzero"/></g></g><g clip-path="url(#577f827cd6)"><g clip-path="url(#5d47a60442)"><path fill="#272a3a" d="M 111.796875 16.613281 L 126.988281 16.613281 L 126.988281 31.804688 L 111.796875 31.804688 Z M 111.796875 16.613281 " fill-opacity="1" fill-rule="nonzero"/></g></g><g clip-path="url(#935c848faf)"><g clip-path="url(#902545bedd)"><path fill="#272a3a" d="M 79.445312 16.613281 L 94.636719 16.613281 L 94.636719 31.804688 L 79.445312 31.804688 Z M 79.445312 16.613281 " fill-opacity="1" fill-rule="nonzero"/></g></g><g clip-path="url(#d43fef9c04)"><g clip-path="url(#8c9556cad4)"><path fill="#272a3a" d="M 47.09375 16.660156 L 62.285156 16.660156 L 62.285156 31.851562 L 47.09375 31.851562 Z M 47.09375 16.660156 " fill-opacity="1" fill-rule="nonzero"/></g></g><g clip-path="url(#170064755b)"><g clip-path="url(#820f87c561)"><path fill="#272a3a" d="M 50.859375 135.335938 L 58.515625 135.335938 L 58.515625 142.992188 L 50.859375 142.992188 Z M 50.859375 135.335938 " fill-opacity="1" fill-rule="nonzero"/></g></g><g clip-path="url(#7e5186997a)"><g clip-path="url(#38c3f40e50)"><path fill="#272a3a" d="M 83.210938 135.335938 L 90.867188 135.335938 L 90.867188 142.992188 L 83.210938 142.992188 Z M 83.210938 135.335938 " fill-opacity="1" fill-rule="nonzero"/></g></g><g clip-path="url(#070c569d84)"><g clip-path="url(#584f7eb620)"><path fill="#272a3a" d="M 50.859375 2.511719 L 58.515625 2.511719 L 58.515625 10.167969 L 50.859375 10.167969 Z M 50.859375 2.511719 " fill-opacity="1" fill-rule="nonzero"/></g></g><g clip-path="url(#bbc4bf3d1d)"><g clip-path="url(#1a48121b0b)"><path fill="#272a3a" d="M 83.210938 2.511719 L 90.867188 2.511719 L 90.867188 10.167969 L 83.210938 10.167969 Z M 83.210938 2.511719 " fill-opacity="1" fill-rule="nonzero"/></g></g><g clip-path="url(#80126fb2bc)"><g clip-path="url(#930fdfdc17)"><path fill="#272a3a" d="M 1.171875 52.761719 L 8.828125 52.761719 L 8.828125 60.417969 L 1.171875 60.417969 Z M 1.171875 52.761719 " fill-opacity="1" fill-rule="nonzero"/></g></g><g clip-path="url(#0ac61490b3)"><g clip-path="url(#9f8a0daab4)"><path fill="#272a3a" d="M 1.171875 85.679688 L 8.828125 85.679688 L 8.828125 93.335938 L 1.171875 93.335938 Z M 1.171875 85.679688 " fill-opacity="1" fill-rule="nonzero"/></g></g><g clip-path="url(#39f7d21b6b)"><g clip-path="url(#5a9e7e5d5e)"><path fill="#272a3a" d="M 133.675781 52.761719 L 141.332031 52.761719 L 141.332031 60.417969 L 133.675781 60.417969 Z M 133.675781 52.761719 " fill-opacity="1" fill-rule="nonzero"/></g></g><g clip-path="url(#2651b41792)"><g clip-path="url(#ab0449eeaf)"><path fill="#272a3a" d="M 133.675781 85.679688 L 141.332031 85.679688 L 141.332031 93.335938 L 133.675781 93.335938 Z M 133.675781 85.679688 " fill-opacity="1" fill-rule="nonzero"/></g></g></svg>